<?xml version="1.0" encoding="UTF-8" standalone="no"?>
<!-- Created with Inkscape (http://www.inkscape.org/) -->

<svg
   xmlns:dc="http://purl.org/dc/elements/1.1/"
   xmlns:cc="http://creativecommons.org/ns#"
   xmlns:rdf="http://www.w3.org/1999/02/22-rdf-syntax-ns#"
   xmlns:svg="http://www.w3.org/2000/svg"
   xmlns="http://www.w3.org/2000/svg"
   xmlns:sodipodi="http://sodipodi.sourceforge.net/DTD/sodipodi-0.dtd"
   xmlns:inkscape="http://www.inkscape.org/namespaces/inkscape"
   width="200"
   height="54"
   id="svg2"
   version="1.1"
   inkscape:version="0.48.4 r9939"
   inkscape:export-filename="C:\Users\user\Desktop\structr_gray_200x54.png"
   inkscape:export-xdpi="90"
   inkscape:export-ydpi="90"
   sodipodi:docname="New document 1">
  <defs
     id="defs4">
    <symbol
       id="*PAPER_SPACE" />
    <symbol
       id="*MODEL_SPACE" />
    <pattern
       id="Hatch"
       x="0"
       y="0"
       patternUnits="userSpaceOnUse"
       width="8"
       height="8">
      <path
         id="path3006"
         d="M8 4 l-4,4"
         stroke-width="0.25"
         stroke="#000000"
         linecap="square" />
      <path
         id="path3008"
         d="M6 2 l-4,4"
         stroke-width="0.25"
         stroke="#000000"
         linecap="square" />
      <path
         id="path3010"
         d="M4 0 l-4,4"
         stroke-width="0.25"
         stroke="#000000"
         linecap="square" />
    </pattern>
    <marker
       orient="auto"
       id="DistanceX"
       style="overflow:visible"
       refX="0.0"
       refY="0.0">
      <path
         id="path3003"
         d="M 3,-3 L -3,3 M 0,-5 L  0,5"
         style="stroke:#000000; stroke-width:0.5" />
    </marker>
    <symbol
       id="*PAPER_SPACE-5" />
    <symbol
       id="*MODEL_SPACE-7" />
    <pattern
       id="Hatch-7"
       x="0"
       y="0"
       patternUnits="userSpaceOnUse"
       width="8"
       height="8">
      <path
         id="path16259"
         d="M8 4 l-4,4"
         stroke-width="0.25"
         stroke="#000000"
         linecap="square" />
      <path
         id="path16261"
         d="M6 2 l-4,4"
         stroke-width="0.25"
         stroke="#000000"
         linecap="square" />
      <path
         id="path16263"
         d="M4 0 l-4,4"
         stroke-width="0.25"
         stroke="#000000"
         linecap="square" />
    </pattern>
    <marker
       orient="auto"
       id="DistanceX-1"
       style="overflow:visible"
       refX="0.0"
       refY="0.0">
      <path
         id="path16256"
         d="M 3,-3 L -3,3 M 0,-5 L  0,5"
         style="stroke:#000000; stroke-width:0.5" />
    </marker>
    <clipPath
       clipPathUnits="userSpaceOnUse"
       id="clipPath5100">
      <path
         inkscape:connector-curvature="0"
         d="M 0,612 792,612 792,0 0,0 0,612 z"
         id="path5102" />
    </clipPath>
  </defs>
  <sodipodi:namedview
     id="base"
     pagecolor="#ffffff"
     bordercolor="#666666"
     borderopacity="1.0"
     inkscape:pageopacity="0.0"
     inkscape:pageshadow="2"
     inkscape:zoom="2"
     inkscape:cx="112.76653"
     inkscape:cy="108.37701"
     inkscape:document-units="px"
     inkscape:current-layer="g19084"
     showgrid="false"
     inkscape:window-width="2048"
     inkscape:window-height="1089"
     inkscape:window-x="1912"
     inkscape:window-y="433"
     inkscape:window-maximized="1" />
  <metadata
     id="metadata7">
    <rdf:RDF>
      <cc:Work
         rdf:about="">
        <dc:format>image/svg+xml</dc:format>
        <dc:type
           rdf:resource="http://purl.org/dc/dcmitype/StillImage" />
        <dc:title></dc:title>
      </cc:Work>
    </rdf:RDF>
  </metadata>
  <g
     inkscape:label="Layer 1"
     inkscape:groupmode="layer"
     id="layer1"
     transform="translate(0,-998.36218)">
    <g
       id="g19084"
       transform="translate(-0.09923711,0.7524928)">
      <g
         transform="matrix(0.66478959,0,0,0.66478959,129.2515,257.10161)"
         id="g19054"
         style="fill:#6e6e6e;fill-opacity:1">
        <g
           id="g5104"
           transform="matrix(1.25,0,0,-1.25,-77.53102,1171.3204)"
           style="fill:#6e6e6e;fill-opacity:1">
          <path
             inkscape:connector-curvature="0"
             d="m 0,0 c 5.1,0 5.94,4.38 5.94,15.899 0,11.46 -0.84,15.9 -5.94,15.9 -5.1,0 -5.939,-4.44 -5.939,-15.9 C -5.939,4.38 -5.1,0 0,0 m 0,38.158 c 12.959,0 14.58,-9.239 14.58,-22.259 C 14.58,2.88 12.959,-6.359 0,-6.359 c -12.959,0 -14.579,9.239 -14.579,22.258 0,13.02 1.62,22.259 14.579,22.259"
             style="fill:#6e6e6e;fill-opacity:1;fill-rule:nonzero;stroke:none"
             id="path5106" />
        </g>
        <g
           id="g5108"
           transform="matrix(1.25,0,0,-1.25,-37.40589,1171.3204)"
           style="fill:#6e6e6e;fill-opacity:1">
          <path
             inkscape:connector-curvature="0"
             d="M 0,0 C 3.6,0 4.32,3.6 4.32,10.62 4.32,17.64 3.6,21.239 0,21.239 -3.66,21.239 -4.38,17.64 -4.38,10.62 -4.38,3.6 -3.66,0 0,0 m -12.66,37.318 8.28,0 0,-13.558 0.12,0 c 1.74,2.579 3.84,3.84 6.96,3.84 6.779,0 9.9,-4.981 9.9,-16.98 0,-12 -3.121,-16.979 -9.9,-16.979 -3.24,0 -5.52,1.259 -7.32,4.259 l -0.12,0 0,-3.42 -7.92,0 0,42.838 z"
             style="fill:#6e6e6e;fill-opacity:1;fill-rule:nonzero;stroke:none"
             id="path5110" />
        </g>
        <g
           id="g5112"
           transform="matrix(1.25,0,0,-1.25,-15.73052,1137.8719)"
           style="fill:#6e6e6e;fill-opacity:1">
          <path
             inkscape:connector-curvature="0"
             d="m 0,0 7.919,0 0,-4.319 0.121,0 c 1.68,3.12 4.02,5.16 7.44,5.16 0.479,0 1.02,-0.061 1.499,-0.12 l 0,-7.92 c -0.84,0.059 -1.739,0.12 -2.579,0.12 -2.88,0 -6.12,-1.5 -6.12,-5.82 l 0,-19.379 -8.28,0 L 0,0 z"
             style="fill:#6e6e6e;fill-opacity:1;fill-rule:nonzero;stroke:none"
             id="path5114" />
        </g>
        <g
           id="g5116"
           transform="matrix(1.25,0,0,-1.25,28.06886,1158.0452)"
           style="fill:#6e6e6e;fill-opacity:1">
          <path
             inkscape:connector-curvature="0"
             d="m 0,0 c -1.14,-0.84 -2.52,-1.38 -3.54,-1.62 -3.359,-0.72 -4.68,-2.34 -4.68,-5.22 0,-2.46 0.901,-4.5 3.12,-4.5 2.22,0 5.1,1.441 5.1,4.98 L 0,0 z m -15.119,6.239 0,0.781 c 0,7.439 5.099,9.959 11.339,9.959 9.84,0 11.7,-4.08 11.7,-9.9 l 0,-16.978 c 0,-3 0.18,-4.38 1.019,-6.241 l -7.919,0 c -0.541,1.02 -0.78,2.281 -1.02,3.36 l -0.12,0 c -1.92,-3.36 -4.26,-4.199 -8.22,-4.199 -5.76,0 -7.8,4.919 -7.8,9.239 0,6.059 2.46,8.519 8.161,10.08 L -3.3,3.6 C -0.84,4.26 0,5.22 0,7.38 c 0,2.459 -1.08,3.959 -3.84,3.959 -2.519,0 -3.84,-1.68 -3.84,-4.199 l 0,-0.901 -7.439,0 z"
             style="fill:#6e6e6e;fill-opacity:1;fill-rule:nonzero;stroke:none"
             id="path5118" />
        </g>
        <g
           id="g5120"
           transform="matrix(1.25,0,0,-1.25,45.31861,1137.8719)"
           style="fill:#6e6e6e;fill-opacity:1">
          <path
             inkscape:connector-curvature="0"
             d="m 0,0 7.92,0 0,-4.319 0.12,0 c 1.68,3.12 4.02,5.16 7.439,5.16 0.48,0 1.02,-0.061 1.5,-0.12 l 0,-7.92 c -0.839,0.059 -1.74,0.12 -2.58,0.12 -2.879,0 -6.12,-1.5 -6.12,-5.82 l 0,-19.379 -8.279,0 L 0,0 z"
             style="fill:#6e6e6e;fill-opacity:1;fill-rule:nonzero;stroke:none"
             id="path5122" />
        </g>
        <g
           id="g5124"
           transform="matrix(1.25,0,0,-1.25,71.62973,1183.6946)"
           style="fill:#6e6e6e;fill-opacity:1">
          <path
             inkscape:connector-curvature="0"
             d="m 0,0 c 0.72,-0.12 1.44,-0.18 2.16,-0.18 3.06,0 4.199,1.68 4.44,4.56 l -9.06,32.278 8.64,0 4.799,-22.318 0.121,0 4.2,22.318 8.279,0 -7.8,-30.118 C 12.899,-4.62 11.04,-6.18 3.36,-6.18 L 0,-6.18 0,0 z"
             style="fill:#6e6e6e;fill-opacity:1;fill-rule:nonzero;stroke:none"
             id="path5126" />
        </g>
      </g>
      <g
         transform="matrix(0.22075054,0,0,0.22075054,32.255765,803.18498)"
         id="g19068"
         style="stroke:#6e6e6e;stroke-opacity:1;stroke-width:6.43713035;stroke-miterlimit:4;stroke-dasharray:none;stroke-linejoin:round">
        <g
           id="g5128"
           transform="matrix(1.25,0,0,-1.25,128.37473,990.28272)"
           style="stroke:#6e6e6e;stroke-opacity:1;stroke-width:5.14970428;stroke-miterlimit:4;stroke-dasharray:none;stroke-linejoin:round">
          <path
             inkscape:connector-curvature="0"
             d="m 0,0 -18.203,16.727 -11.808,3.813 -74.906,-36.897 -16.359,-79.211 52.643,34.807 -8.363,10.21 47.23,23.984 7.871,30.503 L 0,0 z"
             style="fill:none;stroke:#6e6e6e;stroke-width:5.14970428;stroke-linecap:butt;stroke-linejoin:round;stroke-miterlimit:4;stroke-opacity:1;stroke-dasharray:none"
             id="path5130" />
        </g>
        <g
           id="g5132"
           transform="matrix(1.25,0,0,-1.25,90.55186,1019.034)"
           style="stroke:#6e6e6e;stroke-opacity:1;stroke-width:5.14970428;stroke-miterlimit:4;stroke-dasharray:none;stroke-linejoin:round">
          <path
             inkscape:connector-curvature="0"
             d="M 0,0 -72.321,76.997 -172.564,83.639 -84.868,15.743 -43.172,-8.24 0,0 z"
             style="fill:none;stroke:#6e6e6e;stroke-width:5.14970428;stroke-linecap:butt;stroke-linejoin:round;stroke-miterlimit:4;stroke-opacity:1;stroke-dasharray:none"
             id="path5134" />
        </g>
        <g
           id="g5136"
           transform="matrix(1.25,0,0,-1.25,-106.88414,928.63047)"
           style="stroke:#6e6e6e;stroke-opacity:1;stroke-width:5.14970428;stroke-miterlimit:4;stroke-dasharray:none;stroke-linejoin:round">
          <path
             inkscape:connector-curvature="0"
             d="M 0,0 -15.354,0 40.539,-31.384 0,0 z"
             style="fill:none;stroke:#6e6e6e;stroke-width:5.14970428;stroke-linecap:butt;stroke-linejoin:round;stroke-miterlimit:4;stroke-opacity:1;stroke-dasharray:none"
             id="path5138" />
        </g>
        <g
           id="g5140"
           transform="matrix(1.25,0,0,-1.25,-2.77152,1010.7295)"
           style="stroke:#6e6e6e;stroke-opacity:1;stroke-width:5.14970428;stroke-miterlimit:4;stroke-dasharray:none;stroke-linejoin:round">
          <path
             inkscape:connector-curvature="0"
             d="m 0,0 24.092,-36.531 4.81,2.836"
             style="fill:none;stroke:#6e6e6e;stroke-width:5.14970428;stroke-linecap:butt;stroke-linejoin:round;stroke-miterlimit:4;stroke-opacity:1;stroke-dasharray:none"
             id="path5142" />
        </g>
        <g
           id="g5144"
           transform="matrix(1.25,0,0,-1.25,42.58373,1066.2336)"
           style="stroke:#6e6e6e;stroke-opacity:1;stroke-width:5.14970428;stroke-miterlimit:4;stroke-dasharray:none;stroke-linejoin:round">
          <path
             inkscape:connector-curvature="0"
             d="m 0,0 -8.363,10.21 47.23,23.983"
             style="fill:none;stroke:#6e6e6e;stroke-width:5.14970428;stroke-linecap:butt;stroke-linejoin:round;stroke-miterlimit:4;stroke-opacity:1;stroke-dasharray:none"
             id="path5146" />
        </g>
        <g
           id="g5148"
           transform="matrix(1.25,0,0,-1.25,105.25636,969.2561)"
           style="stroke:#6e6e6e;stroke-opacity:1;stroke-width:5.14970428;stroke-miterlimit:4;stroke-dasharray:none;stroke-linejoin:round">
          <path
             inkscape:connector-curvature="0"
             d="M 0,0 -3.4,-12.886"
             style="fill:none;stroke:#6e6e6e;stroke-width:5.14970428;stroke-linecap:butt;stroke-linejoin:round;stroke-miterlimit:4;stroke-opacity:1;stroke-dasharray:none"
             id="path5150" />
        </g>
        <g
           id="g5152"
           transform="matrix(1.25,0,0,-1.25,-0.12877,922.77047)"
           style="stroke:#6e6e6e;stroke-opacity:1;stroke-width:5.14970428;stroke-miterlimit:4;stroke-dasharray:none;stroke-linejoin:round">
          <path
             inkscape:connector-curvature="0"
             d="M 0,0 -12.324,-61.268"
             style="fill:none;stroke:#6e6e6e;stroke-width:5.14970428;stroke-linecap:butt;stroke-linejoin:round;stroke-miterlimit:4;stroke-opacity:1;stroke-dasharray:none"
             id="path5154" />
        </g>
      </g>
    </g>
  </g>
</svg>
